<?xml version="1.0" encoding="UTF-8"?>
<svg version="1.1" xmlns="http://www.w3.org/2000/svg" width="300" height="400">
<path d="M0 0 C99 0 198 0 300 0 C300 132 300 264 300 400 C201 400 102 400 0 400 C0 268 0 136 0 0 Z " fill="#141C2F" transform="translate(0,0)"/>
<path d="M0 0 C1.9765625 1.53515625 1.9765625 1.53515625 3.375 2.9375 C3.375 3.5975 3.375 4.2575 3.375 4.9375 C4.365 5.2675 5.355 5.5975 6.375 5.9375 C9.49601205 11.38622338 10.91622907 16.71336566 10.375 22.9375 C6.085 22.9375 1.795 22.9375 -2.625 22.9375 C-3.015625 19.87760417 -3.40625 16.81770833 -3.796875 13.7578125 C-4.32220665 10.83124899 -4.32220665 10.83124899 -6.578125 9.6796875 C-7.25359375 9.43476563 -7.9290625 9.18984375 -8.625 8.9375 C-9.285 8.2775 -9.945 7.6175 -10.625 6.9375 C-16.64534846 4.85044587 -24.09291908 5.10881897 -30.0625 7.0625 C-34.31514422 10.17419089 -37.71786675 13.56980976 -38.625 18.9375 C-38.89159828 23.42816244 -38.93803237 27.91932676 -38.97509766 32.41674805 C-38.9916001 33.88012662 -39.01881497 35.34342649 -39.05712891 36.80639648 C-39.39518564 49.2115688 -39.39518564 49.2115688 -33.625 59.9375 C-27.4778345 64.03561034 -19.78622455 63.56804807 -12.625 62.9375 C-8.29138439 61.06956224 -7.06499047 59.74162052 -4.8125 55.625 C-3.35506018 51.45489761 -3.35506018 51.45489761 -2.625 44.9375 C-9.555 44.9375 -16.485 44.9375 -23.625 44.9375 C-23.625 41.6375 -23.625 38.3375 -23.625 34.9375 C-12.405 34.9375 -1.185 34.9375 10.375 34.9375 C10.375 47.8075 10.375 60.6775 10.375 73.9375 C6.415 73.9375 2.455 73.9375 -1.625 73.9375 C-1.625 71.2975 -1.625 68.6575 -1.625 65.9375 C-2.12128906 66.41960937 -2.61757812 66.90171875 -3.12890625 67.3984375 C-9.88663108 73.68171106 -15.52800057 75.37256275 -24.70703125 75.1953125 C-31.14180325 74.62677843 -37.71872689 73.36566761 -42.625 68.9375 C-42.625 68.2775 -42.625 67.6175 -42.625 66.9375 C-43.285 66.9375 -43.945 66.9375 -44.625 66.9375 C-46.0625 65.21484375 -46.0625 65.21484375 -47.625 62.875 C-48.140625 62.12089844 -48.65625 61.36679688 -49.1875 60.58984375 C-53.18747268 53.20945937 -52.99746316 45.49334728 -52.99560547 37.34179688 C-52.99996184 35.20620905 -53.03630085 33.07272117 -53.07421875 30.9375 C-53.16820042 19.64976781 -51.56434237 10.00457643 -43.4765625 1.58984375 C-31.69239673 -8.92640545 -12.62681829 -9.06029593 0 0 Z " fill="#495160" transform="translate(170.625,165.0625)"/>
<path d="M0 0 C1.9765625 1.53515625 1.9765625 1.53515625 3.375 2.9375 C3.375 3.5975 3.375 4.2575 3.375 4.9375 C4.365 5.2675 5.355 5.5975 6.375 5.9375 C9.49601205 11.38622338 10.91622907 16.71336566 10.375 22.9375 C6.085 22.9375 1.795 22.9375 -2.625 22.9375 C-3.015625 19.87760417 -3.40625 16.81770833 -3.796875 13.7578125 C-4.32220665 10.83124899 -4.32220665 10.83124899 -6.578125 9.6796875 C-7.25359375 9.43476563 -7.9290625 9.18984375 -8.625 8.9375 C-9.285 8.2775 -9.945 7.6175 -10.625 6.9375 C-16.64534846 4.85044587 -24.09291908 5.10881897 -30.0625 7.0625 C-35.60276583 11.11635305 -38.28426473 15.23382366 -39.625 21.9375 C-40.0440783 25.26576134 -40.36927668 28.59290814 -40.625 31.9375 C-41.285 31.9375 -41.945 31.9375 -42.625 31.9375 C-42.625 32.5975 -42.625 33.2575 -42.625 33.9375 C-44.275 34.5975 -45.925 35.2575 -47.625 35.9375 C-47.625 36.5975 -47.625 37.2575 -47.625 37.9375 C-49.275 38.5975 -50.925 39.2575 -52.625 39.9375 C-53.57375778 13.73354004 -53.57375778 13.73354004 -45.3125 3.5 C-33.62824052 -8.65660189 -13.5665389 -9.73458668 0 0 Z " fill="#485060" transform="translate(170.625,165.0625)"/>
<path d="M0 0 C0.33 0 0.66 0 1 0 C1.00410889 0.83136475 1.00821777 1.66272949 1.01245117 2.51928711 C1.03964602 5.64538961 1.0889547 8.77019491 1.15258789 11.89575195 C1.18680889 13.8970821 1.19619965 15.89878762 1.20507812 17.90039062 C1.37992463 25.61306444 1.92767624 31.89552264 7 38 C10.5397007 40.35980046 12.99106288 40.58600808 17.1875 41.125 C18.45980469 41.29257813 19.73210937 41.46015625 21.04296875 41.6328125 C22.50669922 41.81457031 22.50669922 41.81457031 24 42 C24 42.33 24 42.66 24 43 C23.43152344 43.07476562 22.86304688 43.14953125 22.27734375 43.2265625 C17.6184509 44.01989651 14.76457743 44.8681437 11.375 48.25 C9.6953125 49.859375 9.6953125 49.859375 8 51 C3.80862265 50.44114969 1.5013843 49.3342562 -2 47 C-2 46.34 -2 45.68 -2 45 C-2.66 45 -3.32 45 -4 45 C-11.02558054 36.58075811 -12.34765214 28.68064617 -12 18 C-10.35 17.34 -8.7 16.68 -7 16 C-7 15.34 -7 14.68 -7 14 C-5.35 13.34 -3.7 12.68 -2 12 C-2 11.34 -2 10.68 -2 10 C-1.34 10 -0.68 10 0 10 C0 6.7 0 3.4 0 0 Z " fill="#10435E" transform="translate(130,187)"/>
<path d="M0 0 C11.22 0 22.44 0 34 0 C34 12.87 34 25.74 34 39 C30.04 39 26.08 39 22 39 C22 38.67 22 38.34 22 38 C25.63 38 29.26 38 33 38 C32.505 20.675 32.505 20.675 32 3 C26.29584247 7.07429936 26.29584247 7.07429936 25 10 C24.01 10 23.02 10 22 10 C21.67 10.66 21.34 11.32 21 12 C21 11.34 21 10.68 21 10 C14.07 10 7.14 10 0 10 C0 6.7 0 3.4 0 0 Z " fill="#13425C" transform="translate(147,200)"/>
<path d="M0 0 C2.5625 0.625 2.5625 0.625 5 2 C6.125 4.0625 6.125 4.0625 7 6 C7.99 6.33 8.98 6.66 10 7 C13.12101205 12.44872338 14.54122907 17.77586566 14 24 C9.71 24 5.42 24 1 24 C0.609375 20.94010417 0.21875 17.88020833 -0.171875 14.8203125 C-0.69531344 11.88248499 -0.69531344 11.88248499 -3 10.75 C-3.66 10.5025 -4.32 10.255 -5 10 C-6.25 7.875 -6.25 7.875 -7 6 C-5.68 5.34 -4.36 4.68 -3 4 C-3 3.34 -3 2.68 -3 2 C-2.01 1.34 -1.02 0.68 0 0 Z " fill="#0E435E" transform="translate(167,164)"/>
<path d="M0 0 C3.63 0 7.26 0 11 0 C11 0.99 11 1.98 11 3 C7.37 3 3.74 3 0 3 C0 2.01 0 1.02 0 0 Z " fill="#293143" transform="translate(253,391)"/>
<path d="M0 0 C2.97 0 5.94 0 9 0 C9 0.99 9 1.98 9 3 C6.03 3 3.06 3 0 3 C0 2.01 0 1.02 0 0 Z " fill="#293143" transform="translate(229,391)"/>
<path d="M0 0 C2.97 0 5.94 0 9 0 C9 0.99 9 1.98 9 3 C6.03 3 3.06 3 0 3 C0 2.01 0 1.02 0 0 Z " fill="#293143" transform="translate(205,391)"/>
<path d="M0 0 C2.97 0 5.94 0 9 0 C9 0.99 9 1.98 9 3 C6.03 3 3.06 3 0 3 C0 2.01 0 1.02 0 0 Z " fill="#293143" transform="translate(181,391)"/>
<path d="M0 0 C2.97 0 5.94 0 9 0 C9 0.99 9 1.98 9 3 C6.03 3 3.06 3 0 3 C0 2.01 0 1.02 0 0 Z " fill="#293143" transform="translate(157,391)"/>
<path d="M0 0 C2.97 0 5.94 0 9 0 C9 0.99 9 1.98 9 3 C6.03 3 3.06 3 0 3 C0 2.01 0 1.02 0 0 Z " fill="#293143" transform="translate(133,391)"/>
<path d="M0 0 C2.97 0 5.94 0 9 0 C9 0.99 9 1.98 9 3 C6.03 3 3.06 3 0 3 C0 2.01 0 1.02 0 0 Z " fill="#293143" transform="translate(109,391)"/>
<path d="M0 0 C2.97 0 5.94 0 9 0 C9 0.99 9 1.98 9 3 C6.03 3 3.06 3 0 3 C0 2.01 0 1.02 0 0 Z " fill="#293143" transform="translate(85,391)"/>
<path d="M0 0 C2.97 0 5.94 0 9 0 C9 0.99 9 1.98 9 3 C6.03 3 3.06 3 0 3 C0 2.01 0 1.02 0 0 Z " fill="#293143" transform="translate(61,391)"/>
<path d="M0 0 C2.64 0 5.28 0 8 0 C8 0.99 8 1.98 8 3 C5.03 3 2.06 3 -1 3 C-0.67 2.01 -0.34 1.02 0 0 Z " fill="#293143" transform="translate(242,391)"/>
<path d="M0 0 C2.64 0 5.28 0 8 0 C8 0.99 8 1.98 8 3 C5.03 3 2.06 3 -1 3 C-0.67 2.01 -0.34 1.02 0 0 Z " fill="#293143" transform="translate(218,391)"/>
<path d="M0 0 C2.64 0 5.28 0 8 0 C8 0.99 8 1.98 8 3 C5.03 3 2.06 3 -1 3 C-0.67 2.01 -0.34 1.02 0 0 Z " fill="#293143" transform="translate(194,391)"/>
<path d="M0 0 C2.64 0 5.28 0 8 0 C8 0.99 8 1.98 8 3 C5.03 3 2.06 3 -1 3 C-0.67 2.01 -0.34 1.02 0 0 Z " fill="#293143" transform="translate(170,391)"/>
<path d="M0 0 C2.64 0 5.28 0 8 0 C8 0.99 8 1.98 8 3 C5.03 3 2.06 3 -1 3 C-0.67 2.01 -0.34 1.02 0 0 Z " fill="#293143" transform="translate(146,391)"/>
<path d="M0 0 C2.64 0 5.28 0 8 0 C8 0.99 8 1.98 8 3 C5.03 3 2.06 3 -1 3 C-0.67 2.01 -0.34 1.02 0 0 Z " fill="#293143" transform="translate(122,391)"/>
<path d="M0 0 C2.64 0 5.28 0 8 0 C8 0.99 8 1.98 8 3 C5.03 3 2.06 3 -1 3 C-0.67 2.01 -0.34 1.02 0 0 Z " fill="#293143" transform="translate(98,391)"/>
<path d="M0 0 C2.64 0 5.28 0 8 0 C8 0.99 8 1.98 8 3 C5.03 3 2.06 3 -1 3 C-0.67 2.01 -0.34 1.02 0 0 Z " fill="#293143" transform="translate(74,391)"/>
<path d="M0 0 C2.64 0 5.28 0 8 0 C8 0.99 8 1.98 8 3 C5.03 3 2.06 3 -1 3 C-0.67 2.01 -0.34 1.02 0 0 Z " fill="#293143" transform="translate(50,391)"/>
<path d="M0 0 C2.64 0 5.28 0 8 0 C8 0.99 8 1.98 8 3 C5.03 3 2.06 3 -1 3 C-0.67 2.01 -0.34 1.02 0 0 Z " fill="#293144" transform="translate(38,391)"/>
<path d="M0 0 C0.99 0 1.98 0 3 0 C3 2.64 3 5.28 3 8 C2.01 8 1.02 8 0 8 C0 5.36 0 2.72 0 0 Z " fill="#2C3345" transform="translate(293,351)"/>
<path d="M0 0 C0.99 0 1.98 0 3 0 C3 2.64 3 5.28 3 8 C2.01 8 1.02 8 0 8 C0 5.36 0 2.72 0 0 Z " fill="#2C3345" transform="translate(293,327)"/>
<path d="M0 0 C0.99 0 1.98 0 3 0 C3 2.64 3 5.28 3 8 C2.01 8 1.02 8 0 8 C0 5.36 0 2.72 0 0 Z " fill="#2C3345" transform="translate(293,303)"/>
<path d="M0 0 C0.99 0 1.98 0 3 0 C3 2.64 3 5.28 3 8 C2.01 8 1.02 8 0 8 C0 5.36 0 2.72 0 0 Z " fill="#2C3345" transform="translate(293,279)"/>
<path d="M0 0 C0.99 0 1.98 0 3 0 C3 2.64 3 5.28 3 8 C2.01 8 1.02 8 0 8 C0 5.36 0 2.72 0 0 Z " fill="#2C3345" transform="translate(293,255)"/>
<path d="M0 0 C0.99 0 1.98 0 3 0 C3 2.64 3 5.28 3 8 C2.01 8 1.02 8 0 8 C0 5.36 0 2.72 0 0 Z " fill="#2C3345" transform="translate(293,231)"/>
<path d="M0 0 C0.99 0 1.98 0 3 0 C3 2.64 3 5.28 3 8 C2.01 8 1.02 8 0 8 C0 5.36 0 2.72 0 0 Z " fill="#2C3345" transform="translate(293,207)"/>
<path d="M0 0 C0.99 0 1.98 0 3 0 C3 2.64 3 5.28 3 8 C2.01 8 1.02 8 0 8 C0 5.36 0 2.72 0 0 Z " fill="#2C3345" transform="translate(293,183)"/>
<path d="M0 0 C0.99 0 1.98 0 3 0 C3 2.64 3 5.28 3 8 C2.01 8 1.02 8 0 8 C0 5.36 0 2.72 0 0 Z " fill="#2C3345" transform="translate(293,159)"/>
<path d="M0 0 C0.99 0 1.98 0 3 0 C3 2.64 3 5.28 3 8 C2.01 8 1.02 8 0 8 C0 5.36 0 2.72 0 0 Z " fill="#2C3345" transform="translate(293,135)"/>
<path d="M0 0 C0.99 0 1.98 0 3 0 C3 2.64 3 5.28 3 8 C2.01 8 1.02 8 0 8 C0 5.36 0 2.72 0 0 Z " fill="#2C3345" transform="translate(293,111)"/>
<path d="M0 0 C0.99 0 1.98 0 3 0 C3 2.64 3 5.28 3 8 C2.01 8 1.02 8 0 8 C0 5.36 0 2.72 0 0 Z " fill="#2C3345" transform="translate(293,87)"/>
<path d="M0 0 C0.99 0 1.98 0 3 0 C3 2.64 3 5.28 3 8 C2.01 8 1.02 8 0 8 C0 5.36 0 2.72 0 0 Z " fill="#2C3345" transform="translate(293,63)"/>
<path d="M0 0 C0.99 0 1.98 0 3 0 C3 2.64 3 5.28 3 8 C2.01 8 1.02 8 0 8 C0 5.36 0 2.72 0 0 Z " fill="#2C3345" transform="translate(293,39)"/>
<path d="M0 0 C2.64 0 5.28 0 8 0 C8 0.99 8 1.98 8 3 C5.69 3 3.38 3 1 3 C0.67 2.01 0.34 1.02 0 0 Z " fill="#293243" transform="translate(153,113)"/>
<path d="M0 0 C0.99 0 1.98 0 3 0 C3.33 2.64 3.66 5.28 4 8 C3.34 8 2.68 8 2 8 C0.23537317 4.91190305 0 3.76687864 0 0 Z " fill="#2E3648" transform="translate(5,363)"/>
<path d="M0 0 C2.64 0 5.28 0 8 0 C8 0.66 8 1.32 8 2 C5.36 2.33 2.72 2.66 0 3 C0 2.01 0 1.02 0 0 Z " fill="#2C3447" transform="translate(157,283)"/>
<path d="M0 0 C2.64 0.66 5.28 1.32 8 2 C8 2.66 8 3.32 8 4 C5.36 3.67 2.72 3.34 0 3 C0 2.01 0 1.02 0 0 Z " fill="#2E3748" transform="translate(266,6)"/>
<path d="M0 0 C2.64 0.66 5.28 1.32 8 2 C8 2.66 8 3.32 8 4 C5.69 3.67 3.38 3.34 1 3 C0.67 2.01 0.34 1.02 0 0 Z " fill="#2F374A" transform="translate(26,389)"/>
<path d="M0 0 C-1.13719419 3.41158256 -2.04342944 4.11854601 -5 6 C-5.66 6 -6.32 6 -7 6 C-7 5.01 -7 4.02 -7 3 C-2.77777778 0 -2.77777778 0 0 0 Z " fill="#2E3749" transform="translate(285,383)"/>
<path d="M0 0 C0.99 0 1.98 0 3 0 C3 2.64 3 5.28 3 8 C2.34 8 1.68 8 1 8 C0.67 5.36 0.34 2.72 0 0 Z " fill="#2D3548" transform="translate(233,188)"/>
<path d="M0 0 C4.67692308 1.47692308 4.67692308 1.47692308 6.3125 4.125 C6.539375 4.74375 6.76625 5.3625 7 6 C2.32307692 4.52307692 2.32307692 4.52307692 0.6875 1.875 C0.460625 1.25625 0.23375 0.6375 0 0 Z " fill="#31384A" transform="translate(16,383)"/>
<path d="M0 0 C2.64 0.33 5.28 0.66 8 1 C8 1.66 8 2.32 8 3 C2.25 3.125 2.25 3.125 0 2 C0 1.34 0 0.68 0 0 Z " fill="#2F384A" transform="translate(130,282)"/>
<path d="M0 0 C0.99 0 1.98 0 3 0 C3 0.66 3 1.32 3 2 C2.34 2 1.68 2 1 2 C0.34 3.32 -0.32 4.64 -1 6 C-1.99 6 -2.98 6 -4 6 C-2.1875 3 -2.1875 3 0 0 Z " fill="#2D3548" transform="translate(213,254)"/>
<path d="M0 0 C0.66 0 1.32 0 2 0 C1.38722388 2.96175123 0.74627478 4.38058783 -1 7 C-1.66 7 -2.32 7 -3 7 C-2.38722388 4.03824877 -1.74627478 2.61941217 0 0 Z " fill="#2D3548" transform="translate(220,245)"/>
<path d="M0 0 C0.66 0 1.32 0 2 0 C1.67 2.31 1.34 4.62 1 7 C0.01 7.33 -0.98 7.66 -2 8 C-1.34 5.36 -0.68 2.72 0 0 Z " fill="#2E3648" transform="translate(230,223)"/>
<path d="M0 0 C0.66 0 1.32 0 2 0 C1.67 2.64 1.34 5.28 1 8 C0.34 8 -0.32 8 -1 8 C-1.125 2.25 -1.125 2.25 0 0 Z " fill="#2E3649" transform="translate(67,172)"/>
<path d="M0 0 C0.99 0 1.98 0 3 0 C1.79618552 2.49361571 0.54571278 4.68143083 -1 7 C-1.66 7 -2.32 7 -3 7 C-1.125 2.25 -1.125 2.25 0 0 Z " fill="#2E3649" transform="translate(77,151)"/>
<path d="M0 0 C-1.13719419 3.41158256 -2.04342944 4.11854601 -5 6 C-5.66 6 -6.32 6 -7 6 C-5.52522876 2.59668175 -4.14385429 0 0 0 Z " fill="#2E3749" transform="translate(105,126)"/>
<path d="M0 0 C0 0.66 0 1.32 0 2 C-2.90600261 3.25664978 -4.79604584 4 -8 4 C-8 3.34 -8 2.68 -8 2 C-5.09399739 0.74335022 -3.20395416 0 0 0 Z " fill="#30394B" transform="translate(275,389)"/>
<path d="M0 0 C0.66 0 1.32 0 2 0 C2.125 5.75 2.125 5.75 1 8 C0.34 8 -0.32 8 -1 8 C-0.67 5.36 -0.34 2.72 0 0 Z " fill="#31394C" transform="translate(293,363)"/>
<path d="M0 0 C0.66 0 1.32 0 2 0 C3.76462683 3.08809695 4 4.23312136 4 8 C3.34 8 2.68 8 2 8 C1.34 5.36 0.68 2.72 0 0 Z " fill="#2E3749" transform="translate(69,230)"/>
<path d="M0 0 C0.66 0 1.32 0 2 0 C2.33 2.64 2.66 5.28 3 8 C2.34 8 1.68 8 1 8 C0.67 5.36 0.34 2.72 0 0 Z " fill="#2F374A" transform="translate(66,219)"/>
<path d="M0 0 C0.66 0 1.32 0 2 0 C3.35439668 2.70879335 3.06501451 5.00933268 3 8 C2.34 8 1.68 8 1 8 C0.67 5.36 0.34 2.72 0 0 Z " fill="#2F3749" transform="translate(231,176)"/>
<path d="M0 0 C0.93065133 2.60582371 1.14917407 3.64198224 0.0625 6.25 C-0.4634375 7.11625 -0.4634375 7.11625 -1 8 C-1.66 8 -2.32 8 -3 8 C-2.45276317 4.62537285 -1.9451 2.91765 0 0 Z " fill="#2F3749" transform="translate(72,161)"/>
<path d="M0 0 C0.99 0.33 1.98 0.66 3 1 C4.1875 4.0625 4.1875 4.0625 5 7 C4.01 6.67 3.02 6.34 2 6 C0.8125 2.9375 0.8125 2.9375 0 0 Z " fill="#2E3749" transform="translate(222,155)"/>
<path d="M0 0 C2.99324263 1.0975223 3.84610901 1.67682892 5.25 4.625 C5.4975 5.40875 5.745 6.1925 6 7 C2.58841744 5.86280581 1.88145399 4.95657056 0 2 C0 1.34 0 0.68 0 0 Z " fill="#2F3849" transform="translate(215,145)"/>
<path d="M0 0 C2.46800047 1.15173355 4.04783565 2.04783565 6 4 C5.67 4.99 5.34 5.98 5 7 C3.29115995 5.37660195 1.62553283 3.70680947 0 2 C0 1.34 0 0.68 0 0 Z " fill="#2F374A" transform="translate(207,136)"/>
<path d="M0 0 C0 0.66 0 1.32 0 2 C-2.64 2.33 -5.28 2.66 -8 3 C-8 2.34 -8 1.68 -8 1 C-5.07175348 0.02391783 -3.04386724 -0.08226668 0 0 Z " fill="#30394A" transform="translate(138,114)"/>
<path d="M0 0 C0.33 0.99 0.66 1.98 1 3 C-0.3125 5.1875 -0.3125 5.1875 -2 7 C-2.66 7 -3.32 7 -4 7 C-3.43628586 3.73045798 -2.50037734 2.17424117 0 0 Z " fill="#30384B" transform="translate(13,18)"/>
</svg>
